<svg xmlns="http://www.w3.org/2000/svg" width="608" height="502">
  <switch>
    <g>
      <path fill="#FFF" stroke="#000" d="M8.925 430.784s51.26 62.568 68.598 65.584c25.631-32.415 46.937-67.055 104.029-130.413C243.367 297.356 315.078 213.369 349 190c-11.307-16.584-53.62-49.439-66.435-66.024C262.211 144.33 149.892 272.48 98.631 326.002S8.925 430.784 8.925 430.784z"/>
      <path fill="#FFF" d="M24.684 410.695s45.729 54.022 63.066 57.037c26.384-24.876 45.985-61.814 106.291-122.12 60.307-60.307 116.091-132.674 150.013-156.043-11.308-16.583-44.877-45.783-57.693-62.367-20.354 20.354-116.111 127.683-167.372 181.206-51.261 53.521-94.305 102.287-94.305 102.287z"/>
      <path fill="#FFF" stroke="#000" d="M17.645 402.148s52.768 62.569 70.105 65.584c26.384-24.876 45.985-61.814 106.291-122.12 60.307-60.307 116.091-132.674 150.013-156.043-11.308-16.583-47.491-51.26-60.307-67.845-20.354 20.354-123.628 122.121-174.888 175.643-51.262 53.522-91.214 104.781-91.214 104.781z"/>
      <g stroke="#000">
        <path fill="none" d="M538.508 75.796s-5.674-45.296-66.341 5.038M528.834 76.833s-8.356-33.014-54.667 4"/>
        <path fill="none" d="M548.167 79.5s0-20.333-16.046-25.165c-11.333-3.412-33.621 1.831-61.954 27.165"/>
        <path fill="#B0B5BD" d="M516.834 75.167s-5.619-10.706-18.334-6.333c-10.103 3.475-19.666 11.333-19.666 11.333M382.785 36.933s-25.68-8.109-20.725 18.021c5.859-6.308 20.725-18.021 20.725-18.021z"/>
        <path fill="#FFF" d="M389.544 30.174s-31.755-13.697-40.513-10.383"/>
      </g>
      <path fill="#FFF" stroke="#000" d="M357.166 59.5s22.316-22.959 35.132-30.497c12.815-7.538 30.906-23.368 61.813-18.091 12.062 5.276 41.462 18.845 67.091 27.137 25.63 8.292 40.708 26.385 32.415 48.246 0-42.968-27.138-37.692-45.984-30.153-25.938 10.225-86.538 63.806-88.799 74.359C385.665 92.81 357.166 59.5 357.166 59.5z"/>
      <path fill="#FFF" stroke="#000" d="M361.068 55.695c3.377 5.525 31.133 42.471 51.876 62.62 12.595 12.234 43.666 43.52 72.75 48.807 10.13 1.843 18.249-2.768 18.249-2.768l4.729 1.645s-20.345 10.664-31.88 4.807c-24.487-12.434-44.183-23.313-72.75-52.797-23.736-24.5-43.129-51.555-48.042-60.148-4.91-8.595-14.595-30.452-.433-33.569 5.333-1.173 17.736 3.72 17.736 3.72l13.236 5.191s-19.13-4.229-23.965-3.807c-6.921.605-6.42 6.961-6.727 10.951-.305 3.99 1.844 9.823 5.221 15.348z"/>
      <path fill="#FFF" d="M354.402 64.014c10.624 18.588 31.029 48.275 53.429 68.111-17.935 26.288-47.135 50.454-61.483 58.006-10.057-6.831-23.509-17.584-34.591-29.444-13.441-14.384-22.551-27.928-28.594-38.775l71.239-57.898z"/>
      <path fill="#FFF" stroke="#000" d="M271.05 84.55s67.119-63.646 68.513-64.285c1.394-.64 7.456-1.184 11.657-.888-2.07.828-12.604 1.539-8.557 16.174 4.58 16.568 30.906 76.89 89.705 115.336 58.8 38.444 64.829 43.722 88.951 25.63 24.123-18.092 9.047-.754 9.047-.754s-9.047 18.092-27.139 16.584c-27.891 4.523-61.691 8.544-84.428 14.322-12.815 6.032-18.092 4.523-33.923.754-15.83-3.769-43.622-15.169-73.121-46.737-42.967-45.982-40.705-76.136-40.705-76.136z"/>
      <path fill="none" stroke="#000" d="M384.811 32.856s-42.652-19.293-28.606 11.285c-3.059-17.254 28.606-11.285 28.606-11.285z"/>
      <path fill="none" stroke="#000" d="M387.834 31.5s-47.334-21.333-44 .667c3.18 20.989 32 62.667 53.332 84.667 36.783 37.933 70.909 59.07 89 61.333 18.093 2.261 30.668-9 30.668-9"/>
      <path fill="#FFF" stroke="#000" d="M483.511 79.51s30.907-10.554 64.075-.754c33.169 9.799 48.999 17.338 51.262 21.861 2.261 4.522 5.275.754.754 12.814-4.523 12.063-20.354 68.599-20.354 68.599s-.753 9.047-6.784 7.538c-6.03-1.507-34.676-15.076-44.476-17.338-9.8-2.261-63.322-23.369-81.414-25.63-12.739-8.435-25.739-21.101-25.739-21.101s25.333-26.333 47-43.667c6.665-.665 15.676-2.322 15.676-2.322z"/>
    </g>
  </switch>
</svg>
